<svg xmlns="http://www.w3.org/2000/svg" width="5.112" height="9.246" viewBox="0 0 5.112 9.246">
  <g id="np_arrow_1776263_000000" transform="translate(0 9.246) rotate(-90)">
    <path id="np_arrow_1776263_000000-2" data-name="np_arrow_1776263_000000" d="M28.583,41.052a.877.877,0,0,0,.492-.216l3.716-3.273a.916.916,0,0,0,.328-.625.929.929,0,0,0-.209-.676.869.869,0,0,0-1.269-.08L28.5,38.949l-3.141-2.767a.869.869,0,0,0-1.269.08.929.929,0,0,0-.209.676.916.916,0,0,0,.328.625l3.716,3.273a.873.873,0,0,0,.658.216Z" transform="translate(-23.877 -35.944)" fill="#D8D8D8"/>
  </g>
</svg>
